# xmcd CD database file
#
# Track frame offsets:
#	150
#	12682
#	29965
#	42520
#	58372
#	71440
#	83822
#	98150
#	110152
#	119540
#	132920
#	145202
#	160817
#	173587
#	190835
#	201870
#	216457
#	234122
#
# Disc length: 3297 seconds
#
# Revision: 0
# Processed by: cddbd v1.5.1PL0 Copyright (c) Steve Scherf et al.
# Submitted via: CDex 1.40Beta9
#
DISCID=130cdf12
DTITLE=Tanya and LaCosta Tucker - Sisters An Anthology
DYEAR=2000
DGENRE=Country
TTITLE0=(LaCosta) He Took Me For A Ride
TTITLE1=(Tanya) Some Kind Of Trouble
TTITLE2=(LaCosta) Get On My Love Train
TTITLE3=(Tanya) Down To My Last Teardrop
TTITLE4=(LaCosta) I Just Got A Feelin'
TTITLE5=(Tanya) Strong Enough To Bend
TTITLE6=(LaCosta) Lovin' Somebody On A Rainy Night
TTITLE7=(Tanya) It's A Little Too Late
TTITLE8=(LaCosta) I Wanna Get To You
TTITLE9=(Tanya) What'll I Do With Me
TTITLE10=(LaCosta) What'll I Do
TTITLE11=(Tanya) It Don't Come Easy
TTITLE12=(LaCosta) Western Man
TTITLE13=(Tanya) Love Me Like You Used To
TTITLE14=(LaCosta) This House Runs On Sunshine
TTITLE15=(Tanya) Just Another Love
TTITLE16=(LaCosta) Even Cowgirls Get The Blues
TTITLE17=(Tanya) It Won't Be Me
EXTD=YEAR: 2000 ID3G: 2
EXTT0=
EXTT1=
EXTT2=
EXTT3=
EXTT4=
EXTT5=
EXTT6=
EXTT7=
EXTT8=
EXTT9=
EXTT10=
EXTT11=
EXTT12=
EXTT13=
EXTT14=
EXTT15=
EXTT16=
EXTT17=
PLAYORDER=
